<svg width="1200" height="400" viewBox="0 0 1200 400" fill="none" xmlns="http://www.w3.org/2000/svg">
  <defs>
    <linearGradient id="grad1" x1="0%" y1="0%" x2="100%" y2="100%">
      <stop offset="0%" style="stop-color:#1a1a1a;stop-opacity:1" />
      <stop offset="100%" style="stop-color:#2a2a2a;stop-opacity:1" />
    </linearGradient>
    <linearGradient id="grad2" x1="0%" y1="0%" x2="100%" y2="0%">
      <stop offset="0%" style="stop-color:#B8860B;stop-opacity:0.6" />
      <stop offset="100%" style="stop-color:#B8860B;stop-opacity:0.2" />
    </linearGradient>
  </defs>
  
  <!-- Background -->
  <rect width="1200" height="400" fill="url(#grad1)" />
  
  <!-- Abstract Building Shapes -->
  <path d="M100 350 L200 150 L300 350 Z" fill="url(#grad2)" opacity="0.7" />
  <path d="M250 350 L350 200 L450 350 Z" fill="url(#grad2)" opacity="0.5" />
  <path d="M400 350 L500 100 L600 350 Z" fill="url(#grad2)" opacity="0.7" />
  <path d="M550 350 L650 180 L750 350 Z" fill="url(#grad2)" opacity="0.5" />
  <path d="M700 350 L800 220 L900 350 Z" fill="url(#grad2)" opacity="0.7" />
  
  <!-- Decorative Lines -->
  <line x1="0" y1="350" x2="1200" y2="350" stroke="#B8860B" stroke-width="2" opacity="0.3" />
  <line x1="100" y1="0" x2="100" y2="400" stroke="#B8860B" stroke-width="1" opacity="0.1" />
  <line x1="400" y1="0" x2="400" y2="400" stroke="#B8860B" stroke-width="1" opacity="0.1" />
  <line x1="700" y1="0" x2="700" y2="400" stroke="#B8860B" stroke-width="1" opacity="0.1" />
  <line x1="1000" y1="0" x2="1000" y2="400" stroke="#B8860B" stroke-width="1" opacity="0.1" />
</svg>